PathFileType	4	(X/Y/Z)	C:/Users/opensim2020/Desktop/walking_exp_matlab/subject06_walking23_straight_04.trc	
DataRate	CameraRate	NumFrames	NumMarkers	Units	OrigDataRate	OrigDataStartFrame	OrigNumFrames	
100.00	100.00	7	45	mm	100.00	2266	145	
Frame#	Time	LFHD			RFHD			LBHD			RBHD			C7			T10			CLAV			STRN			RBAK			LSHO			LUPA			LELB			LFRM			LWRA			LWRB			LFIN			RSHO			RUPA			RELB			RFRM			RWRA			RWRB			RFIN			LASI			RASI			LPSI			RPSI			LTHI			LKNE			LTIB			LANK			LHEE			LTOE			RTHI			RKNE			RTIB			RANK			RHEE			RTOE			*39			*40			*41			*42			*43			*44			
		X1	Y1	Z1	X2	Y2	Z2	X3	Y3	Z3	X4	Y4	Z4	X5	Y5	Z5	X6	Y6	Z6	X7	Y7	Z7	X8	Y8	Z8	X9	Y9	Z9	X10	Y10	Z10	X11	Y11	Z11	X12	Y12	Z12	X13	Y13	Z13	X14	Y14	Z14	X15	Y15	Z15	X16	Y16	Z16	X17	Y17	Z17	X18	Y18	Z18	X19	Y19	Z19	X20	Y20	Z20	X21	Y21	Z21	X22	Y22	Z22	X23	Y23	Z23	X24	Y24	Z24	X25	Y25	Z25	X26	Y26	Z26	X27	Y27	Z27	X28	Y28	Z28	X29	Y29	Z29	X30	Y30	Z30	X31	Y31	Z31	X32	Y32	Z32	X33	Y33	Z33	X34	Y34	Z34	X35	Y35	Z35	X36	Y36	Z36	X37	Y37	Z37	X38	Y38	Z38	X39	Y39	Z39	X40	Y40	Z40	X41	Y41	Z41	X42	Y42	Z42	X43	Y43	Z43	X44	Y44	Z44	X45	Y45	Z45	

1	0.000	-883.86243	801.61444	1662.81128	-1015.87079	792.19720	1659.30151	-896.73914	935.28894	1611.05188	-1025.56726	923.82751	1612.34778	-956.10889	932.67200	1454.28235	-969.97711	966.33539	1126.45386	-956.28406	821.08014	1378.86487	-952.47754	782.17175	1204.03784	-1040.11658	1002.36383	1286.75854	-795.60022	883.81622	1407.23450	-729.02863	892.10571	1204.32605	-722.11908	896.41492	1090.80981	-703.33887	845.17657	948.74744	-744.42645	754.58179	856.96863	-713.17633	814.71533	833.73889	-711.15570	751.52173	768.23279	-1116.88879	867.16272	1415.45728	-1216.12183	926.48102	1231.18628	-1238.92676	933.05902	1110.83398	-1265.04492	919.49396	993.23193	-1244.14941	855.78363	853.87335	-1282.34790	912.49341	856.38123	-1289.89807	874.96619	781.16852	-861.58966	792.66272	963.78796	-1080.54138	784.42194	978.36115	-892.51538	949.75873	987.00769	-1059.87292	937.15002	1000.58020	-816.71082	802.85101	645.72821	-840.44788	754.40723	490.98477	-855.66571	921.56134	314.23697	-895.45288	1036.74609	187.53484	-943.43878	1073.81030	201.52550	-894.90662	954.43390	67.73824	-1138.82947	827.04364	641.13312	-1113.12158	819.97437	515.44617	-1114.04895	882.66315	252.92680	-1065.82739	911.30579	69.25976	-1023.14282	953.66699	45.51567	-1063.45117	759.20673	32.64367	-948.06848	896.59698	1706.06433															 
2	0.010	-884.00940	788.55267	1662.72278	-1016.00037	778.94287	1659.54138	-897.20105	922.26215	1611.14941	-1026.00598	910.63580	1612.73962	-957.05780	919.66650	1454.43579	-971.50018	953.14362	1126.68909	-956.97223	808.16846	1379.04004	-953.46863	769.02008	1204.18091	-1041.85388	988.94702	1286.95996	-796.38129	871.27521	1407.08887	-730.40204	881.83441	1204.01660	-723.98926	887.62793	1090.52771	-704.56580	841.43884	946.86871	-744.20569	753.54022	851.52899	-713.89368	815.05444	830.69885	-710.91632	754.42419	762.67450	-1117.61145	853.44336	1415.79553	-1217.77783	911.16022	1231.44055	-1240.62744	916.06604	1111.01477	-1266.18298	899.35059	993.81299	-1243.92175	831.55511	856.73883	-1282.77441	888.07043	857.39508	-1289.40613	847.94409	783.23846	-863.27209	779.63025	964.59271	-1082.16309	771.98419	977.80670	-893.54102	936.72815	987.71729	-1061.01099	924.58917	1000.50641	-816.78369	785.09064	647.99896	-841.24438	734.06085	494.13495	-856.71124	894.40326	309.95456	-897.24579	1002.56274	177.47107	-945.86047	1039.84045	188.89085	-895.09332	913.23773	63.25726	-1138.62817	818.89978	640.27869	-1113.60339	814.23718	514.42560	-1113.66077	880.50299	252.77267	-1065.37720	910.74097	69.51473	-1022.55896	953.23590	46.10601	-1063.48718	759.00677	32.49806	-948.26575	883.45441	1706.25513															 
3	0.020	-884.19446	775.56213	1662.47388	-1016.15875	765.77783	1659.59460	-897.66846	909.18243	1610.96008	-1026.40088	897.42303	1612.91711	-957.97229	906.61615	1454.42627	-973.02570	939.93091	1126.69409	-957.60864	795.17743	1379.05457	-954.45648	755.83868	1204.10266	-1043.43286	975.61719	1286.95386	-797.09143	858.68909	1406.75281	-731.68933	871.58954	1203.48584	-725.66162	878.77246	1090.06287	-706.03113	837.47162	944.82166	-743.97882	752.66235	846.13409	-714.76001	815.43213	827.75085	-710.73816	757.70642	757.45465	-1118.41614	839.94208	1415.96423	-1219.24548	895.81293	1231.26648	-1242.22339	899.25665	1110.92126	-1267.21704	879.20502	994.24646	-1243.62317	807.50024	859.49915	-1282.89246	863.46893	858.26007	-1288.78723	820.89154	785.45612	-864.93622	766.25525	965.02545	-1083.96802	758.87372	976.93231	-894.64368	923.72906	988.15906	-1062.22571	912.09351	1000.14124	-816.82263	767.58984	650.10150	-841.97534	714.31708	497.12466	-858.29572	866.26929	304.95108	-898.90753	967.40619	166.83789	-947.92847	1004.97784	175.74902	-894.96954	871.12848	58.77982	-1138.89746	810.79407	639.39343	-1114.12549	808.32184	513.37738	-1113.32483	877.98010	252.60211	-1064.94373	910.46588	69.73569	-1022.07770	952.87701	46.33547	-1063.54932	758.87756	32.37251	-948.42102	870.31610	1706.21362															 
4	0.030	-884.29645	762.55066	1661.96631	-1016.25684	752.61395	1659.44421	-897.99902	896.18774	1610.66211	-1026.72974	884.28119	1612.83679	-958.74713	893.42914	1454.19714	-974.43127	926.71558	1126.39868	-958.22485	782.04065	1378.81812	-955.40741	742.66254	1203.79688	-1044.79260	962.26300	1286.66382	-797.75055	845.96442	1406.14392	-732.88306	861.30835	1202.78467	-727.18286	869.94659	1089.39160	-706.28827	834.05304	943.04358	-743.72961	751.89087	840.91821	-715.53632	815.88275	825.01959	-710.45197	760.98016	752.53003	-1119.16760	826.43091	1415.88843	-1220.76904	880.41742	1230.94263	-1243.70337	882.36993	1110.57629	-1268.11731	858.98999	994.56897	-1243.03943	783.66400	862.33783	-1282.84631	838.77496	859.10956	-1287.94580	793.82251	787.72864	-866.60657	752.73407	965.08240	-1085.58752	747.13385	975.63281	-895.65845	910.72021	988.29120	-1063.40002	899.55457	999.51575	-816.83258	750.20087	651.77026	-842.71039	695.17877	499.82541	-859.30780	838.19019	299.49347	-900.41309	931.30591	155.80653	-949.83075	968.90656	162.09586	-894.94983	828.31464	54.42014	-1138.99524	802.50116	638.33844	-1114.73840	802.28162	512.33160	-1113.21411	875.13678	252.32747	-1064.95825	910.11169	69.87582	-1021.84735	952.73834	46.70682	-1063.64978	758.72614	32.22866	-948.50452	857.19531	1705.95764															 
5	0.040	-884.40088	749.53503	1661.35291	-1016.32806	739.47589	1659.05359	-898.33826	883.06750	1609.95618	-1027.26941	871.31482	1612.48267	-959.52979	880.25964	1453.77991	-975.81445	913.45538	1125.89441	-958.79645	768.81122	1378.33691	-956.32935	729.42395	1203.30396	-1046.03455	948.95160	1286.15991	-798.36395	833.17084	1405.35535	-733.94403	850.77814	1201.94543	-728.57928	860.90924	1088.64734	-707.65613	829.43542	941.25507	-743.37274	751.20618	835.91602	-716.24811	816.31451	822.59705	-710.27582	764.21948	747.94000	-1119.85486	813.05457	1415.63025	-1222.00452	864.95428	1230.28247	-1245.06274	865.40314	1110.06104	-1268.88391	838.74451	994.82135	-1242.32751	759.71429	865.23505	-1282.69702	814.42261	860.08698	-1287.03027	766.91907	790.20105	-868.12036	739.57489	965.15680	-1087.02747	734.73907	974.24133	-896.59467	897.62952	988.12738	-1064.42297	886.96655	998.79608	-816.96997	733.90747	653.76843	-843.36060	676.86310	502.00528	-859.82239	810.23956	293.58377	-901.68323	894.19928	144.55907	-951.59833	931.85712	148.35017	-894.68140	785.18018	49.99583	-1139.11926	794.08575	637.21783	-1115.34167	796.00623	511.09818	-1113.27087	872.10004	252.02173	-1064.85071	909.82056	70.11865	-1021.69885	952.57379	47.02813	-1063.82068	758.63574	32.11853	-948.60266	844.11835	1705.45752															 
6	0.050	-884.48779	736.48846	1660.53870	-1016.39600	726.35461	1658.47217	-898.60541	870.08923	1609.16455	-1027.26611	857.91467	1611.82690	-960.25061	867.06775	1453.05530	-977.08521	900.23615	1125.12366	-959.31549	755.62402	1377.61584	-957.20795	716.12323	1202.64905	-1047.16724	935.63385	1285.47754	-798.97156	820.31628	1404.39917	-734.89502	840.04944	1201.06714	-729.89117	851.72162	1087.91089	-708.47504	825.14978	939.62122	-742.89856	750.43402	831.24072	-716.63538	816.49390	820.68921	-710.07324	767.74384	743.83209	-1120.49048	799.50269	1415.15552	-1223.29236	849.58923	1229.54602	-1246.34314	848.33868	1109.45300	-1269.55066	818.45660	995.02454	-1241.48584	735.88269	868.16272	-1282.45813	789.90576	861.20630	-1285.92944	740.11469	792.83545	-869.40601	726.17480	964.89233	-1088.20605	722.27325	972.87970	-897.37817	884.52039	987.69690	-1065.31250	874.46124	997.85059	-817.05444	717.61450	655.18555	-843.90509	659.19281	503.81757	-860.32550	781.76953	287.38605	-902.64154	856.16742	133.25612	-952.90228	893.65863	134.46814	-894.33832	741.21973	46.28666	-1139.18958	785.65027	636.04694	-1116.07813	789.74750	509.93820	-1113.24976	869.27014	251.89993	-1064.65454	909.49670	70.33563	-1021.63580	952.42188	47.48450	-1063.93542	758.46527	32.00938	-948.66699	831.07806	1704.68054															 
7	0.060	-884.55164	723.46552	1659.48425	-1016.46545	713.27118	1657.67688	-898.82697	856.93170	1607.94910	-1027.50208	844.77722	1610.90405	-960.88373	853.78284	1452.10486	-978.20953	887.01801	1124.13562	-959.76544	742.35974	1376.74292	-958.09375	702.83392	1201.71460	-1048.23047	922.27582	1284.59851	-799.56525	807.39093	1403.22290	-735.77301	828.94952	1200.05212	-731.05377	842.26733	1087.06860	-709.02185	820.98444	938.03589	-742.39447	749.66803	826.82361	-717.05853	816.31531	818.83881	-709.65283	770.75922	740.16559	-1121.04822	785.91339	1414.49719	-1224.28149	834.13959	1228.51929	-1247.41907	831.12427	1108.67004	-1270.03943	798.18915	995.21887	-1240.45496	712.34937	871.05603	-1281.87671	765.55615	862.14142	-1284.74841	713.66522	795.56226	-870.56616	712.82709	964.22876	-1089.02014	710.53308	971.03729	-898.02081	871.49951	987.02393	-1066.02710	861.82538	996.78870	-817.06458	701.67847	656.15900	-844.40057	642.14392	505.08710	-860.99231	752.85608	280.76529	-903.37750	816.96161	121.98818	-953.82880	854.45050	120.66170	-894.01428	696.81421	43.48330	-1139.52039	776.85236	634.74896	-1116.65735	783.34143	508.67010	-1113.41040	866.18945	251.60475	-1064.53833	909.05341	70.64348	-1021.43945	952.20166	48.04630	-1064.03406	758.15918	32.01791	-948.65900	818.03186	1703.69360															 
